<?xml version="1.0" encoding="UTF-8" standalone="no"?>
<!DOCTYPE svg PUBLIC "-//W3C//DTD SVG 1.1//EN" "http://www.w3.org/Graphics/SVG/1.1/DTD/svg11.dtd">
<svg width="100%" height="100%" viewBox="0 0 5142 1000" version="1.1" xmlns="http://www.w3.org/2000/svg" xmlns:xlink="http://www.w3.org/1999/xlink" xml:space="preserve" xmlns:serif="http://www.serif.com/" style="fill-rule:evenodd;clip-rule:evenodd;stroke-linejoin:round;stroke-miterlimit:2;">
    <g transform="matrix(4.16667,0,0,4.16667,8614.28,1549.17)">
        <g id="Layer-1" serif:id="Layer 1">
            <g>
                <g transform="matrix(0.463206,0,0,0.463206,-2025.38,-261.1)">
                    <path d="M0,-101.577C11.192,-104.095 21.197,-105.354 30.011,-105.354C44.98,-105.354 56.245,-102.416 63.8,-96.54C71.355,-90.664 75.133,-81.01 75.133,-67.578L75.133,3.777L43.862,3.777L43.862,-61.282C43.862,-73.454 37.006,-79.541 23.295,-79.541C20.216,-79.541 17.068,-79.19 13.852,-78.492C10.631,-77.79 8.113,-76.95 6.296,-75.973L6.296,3.777L-24.974,3.777L-24.974,-93.392C-19.518,-96.33 -11.195,-99.058 0,-101.577" style="fill:rgb(30,175,100);fill-rule:nonzero;"/>
                </g>
                <g transform="matrix(0.463206,0,0,0.463206,-1974.05,-291.333)">
                    <path d="M0,-13.222L-15.53,-13.222L-15.53,-37.147L0.21,-37.147L0.21,-39.665C0.348,-55.615 4.021,-66.702 11.228,-72.929C18.432,-79.153 28.26,-82.268 40.714,-82.268C42.95,-82.268 45.4,-82.058 48.06,-81.639C50.716,-81.219 52.887,-80.727 54.565,-80.17L54.565,-52.677C53.024,-54.215 51.486,-55.369 49.948,-56.139C48.407,-56.907 46.449,-57.294 44.072,-57.294C40.153,-57.294 37.074,-56.244 34.838,-54.146C32.599,-52.047 31.48,-48.479 31.48,-43.443L31.48,-37.147L54.565,-37.147L54.565,-13.222L31.271,-13.222L31.271,69.046L0,69.046L0,-13.222Z" style="fill:rgb(30,175,100);fill-rule:nonzero;"/>
                </g>
                <g transform="matrix(0.463206,0,0,0.463206,-2056.63,-347.318)">
                    <rect x="255.72" y="114.779" width="64.01" height="21.616" style="fill:rgb(30,176,98);"/>
                </g>
                <g transform="matrix(0.463206,0,0,0.463206,-1884.33,-307.081)">
                    <path d="M0,99.687C-8.395,95.631 -15.078,89.508 -20.043,81.324C-25.011,73.139 -27.493,63.17 -27.493,51.417C-27.493,32.529 -22.456,18.226 -12.383,8.499C-2.309,-1.223 11.123,-6.086 27.912,-6.086C33.788,-6.086 39.733,-5.489 45.751,-4.302C51.765,-3.112 57.084,-1.469 61.701,0.63L61.701,27.493C55.962,24.974 50.856,23.053 46.381,21.721C41.901,20.394 37.425,19.728 32.949,19.728C23.715,19.728 16.507,22.003 11.333,26.548C6.155,31.097 3.567,38.196 3.567,47.85C3.567,58.625 5.981,66.6 10.808,71.775C15.635,76.953 23.505,79.54 34.418,79.54C42.672,79.54 51.837,76.743 61.91,71.145L61.91,97.798C56.874,100.458 51.66,102.451 46.275,103.779C40.888,105.107 34.838,105.773 28.122,105.773C17.767,105.773 8.395,103.743 0,99.687" style="fill:rgb(250,250,250);fill-rule:nonzero;"/>
                </g>
                <g transform="matrix(0.463206,0,0,0.463206,-1815.31,-294.881)">
                    <path d="M0,46.8C3.915,41.416 5.876,33.546 5.876,23.19C5.876,11.857 3.951,3.778 0.104,-1.05C-3.745,-5.876 -9.585,-8.29 -17.419,-8.29C-25.535,-8.29 -31.375,-5.876 -34.943,-1.05C-38.511,3.778 -40.295,11.857 -40.295,23.19C-40.295,33.966 -38.442,41.941 -34.733,47.115C-31.027,52.293 -25.257,54.88 -17.419,54.88C-9.727,54.88 -3.919,52.188 0,46.8M-57.714,65.583C-66.669,56.071 -71.146,41.941 -71.146,23.19C-71.146,3.604 -66.705,-10.667 -57.818,-19.623C-48.936,-28.575 -35.468,-33.054 -17.419,-33.054C0.63,-33.054 14.198,-28.47 23.295,-19.308C32.389,-10.143 36.937,4.023 36.937,23.19C36.937,41.658 32.247,55.719 22.875,65.373C13.5,75.028 0.068,79.854 -17.419,79.854C-35.33,79.854 -48.762,75.099 -57.714,65.583" style="fill:rgb(250,250,250);fill-rule:nonzero;"/>
                </g>
                <g transform="matrix(0.463206,0,0,0.463206,-1788.19,-265.961)">
                    <path d="M0,-80.799C2.099,-82.616 5.771,-84.646 11.018,-86.885C16.265,-89.122 22.141,-91.047 28.646,-92.656C35.152,-94.263 41.412,-95.07 47.43,-95.07C59.041,-95.07 67.085,-93.319 71.564,-89.823L71.564,-66.948C65.967,-68.207 57.923,-68.837 47.43,-68.837C40.852,-68.837 35.467,-68.486 31.27,-67.787L31.27,14.271L0,14.271L0,-80.799Z" style="fill:rgb(250,250,250);fill-rule:nonzero;"/>
                </g>
                <g transform="matrix(0.463206,0,0,0.463206,-1736.37,-278.696)">
                    <path d="M0,-23.085L39.245,-23.085C38.265,-30.64 36.271,-36.024 33.264,-39.245C30.254,-42.461 25.813,-44.071 19.937,-44.071C8.742,-44.071 2.099,-37.074 0,-23.085M70.306,-3.148L0.21,-3.148C2.866,11.543 12.729,18.889 29.801,18.889C34.976,18.889 40.049,18.154 45.017,16.685C49.981,15.216 55.264,13.294 60.861,10.914L60.861,37.777C49.388,42.531 36.517,44.912 22.246,44.912C11.471,44.912 2.026,42.708 -6.086,38.301C-14.202,33.894 -20.498,27.565 -24.975,19.309C-29.454,11.055 -31.69,1.332 -31.69,-9.863C-31.69,-28.332 -27.109,-42.635 -17.943,-52.781C-8.782,-62.923 4.266,-67.997 21.196,-67.997C54.355,-67.997 70.726,-46.38 70.306,-3.148" style="fill:rgb(250,250,250);fill-rule:nonzero;"/>
                </g>
                <g transform="matrix(-15.7135,15.7749,15.7749,15.7135,-1912.41,-295.117)">
                    <path d="M0.49,-0.428L1.123,-0.428L0.228,0.471L-0.09,0.154L0.49,-0.428Z" style="fill:url(#_Linear1);fill-rule:nonzero;"/>
                </g>
                <g transform="matrix(0.0838877,0,0,0.0830546,-2118.63,-635.081)">
                    <path d="M4965.69,4644.4L5400.59,3632.42L5527.73,3632.42L5091.66,4644.4L4965.69,4644.4Z" style="fill:rgb(250,250,250);fill-rule:nonzero;"/>
                </g>
                <g transform="matrix(0.463206,0,0,0.463206,-2014.63,-357.089)">
                    <g transform="matrix(1,0,0,1,967.246,72.6596)">
                        <path d="M0,45.025L0,48.427C-0.07,48.445 -0.142,48.463 -0.212,48.48C-0.791,48.004 -1.375,47.533 -1.949,47.051C-5.775,43.841 -9.825,40.959 -14.305,38.719C-15.08,38.331 -15.833,37.875 -16.701,37.698C-16.764,37.56 -16.901,37.539 -17.023,37.489C-18.713,36.792 -20.445,36.229 -22.227,35.817C-26.097,34.921 -29.981,34.836 -33.877,35.619C-38.883,36.626 -43.363,38.832 -47.56,41.666C-51.725,44.479 -55.479,47.782 -59.002,51.355C-59.638,52 -59.649,51.998 -60.041,51.183C-61.914,47.283 -63.974,43.492 -66.553,40.005C-68.523,37.342 -70.724,34.908 -73.578,33.152C-76.456,31.381 -79.539,30.738 -82.864,31.542C-86.945,32.528 -90.223,34.907 -93.315,37.602C-95.201,39.062 -96.892,40.741 -98.642,42.352C-100.212,43.797 -101.788,45.234 -103.418,46.613C-103.716,46.866 -103.874,46.862 -104.145,46.578C-105.727,44.918 -107.426,43.401 -109.465,42.304C-112.396,40.726 -115.434,40.533 -118.574,41.555C-121.206,42.411 -123.535,43.852 -125.866,45.295C-126.785,45.864 -127.642,46.535 -128.633,46.986L-128.633,46.757C-128.497,46.593 -128.546,46.393 -128.539,46.209C-128.39,42.001 -128.032,37.813 -127.379,33.65C-126.479,27.912 -125.034,22.335 -122.477,17.09C-120.563,13.167 -118.062,9.666 -114.815,6.731C-110.551,2.875 -105.517,0.438 -100.037,-1.137C-94.096,-2.844 -87.996,-3.548 -81.847,-3.886C-79.414,-4.02 -76.977,-4.078 -74.541,-4.17C-73.354,-3.677 -72.099,-3.4 -70.883,-3C-69.101,-2.454 -67.318,-1.91 -65.536,-1.365C-64.629,-1.032 -63.723,-0.695 -62.813,-0.367C-59.291,0.905 -55.929,2.483 -52.949,4.794C-52.177,5.393 -51.436,6.03 -50.679,6.676C-50.83,6.115 -51.037,5.591 -51.235,5.065C-52.538,1.608 -54.527,-1.302 -57.761,-3.254C-59.098,-4.061 -60.519,-4.704 -61.877,-5.466C-61.745,-5.483 -61.612,-5.497 -61.48,-5.519C-57.193,-6.232 -52.873,-6.656 -48.534,-6.827C-44.805,-6.975 -41.07,-6.92 -37.348,-6.533C-32.998,-6.08 -28.743,-5.223 -24.632,-3.703C-18.55,-1.454 -13.371,2.065 -9.354,7.194C-5.849,11.668 -3.615,16.76 -2.183,22.226C-0.761,27.649 -0.156,33.182 -0.001,38.773C-0.001,40.857 0,42.941 0,45.025" style="fill:rgb(30,175,100);fill-rule:nonzero;"/>
                    </g>
                    <g transform="matrix(-0.999868,0.0162658,0.0162658,0.999868,967.398,117.682)">
                        <path d="M0.051,-6.251C0.016,-6.251 -0.017,-6.257 -0.051,-6.269L0.051,0.019C0.085,0.011 0.118,0.004 0.152,-0C0.118,-2.084 0.085,-4.168 0.051,-6.251" style="fill:rgb(235,220,134);fill-rule:nonzero;"/>
                    </g>
                    <g transform="matrix(1,0,0,1,932.705,21.7765)">
                        <path d="M0,-0.11C0.002,-0.073 0.004,-0.037 0.005,-0.001C-1.407,-0.001 -2.82,0 -4.233,0C-4.226,-0.024 -4.214,-0.048 -4.21,-0.072C-4.209,-0.084 -4.223,-0.097 -4.229,-0.11L0,-0.11Z" style="fill:rgb(159,145,143);fill-rule:nonzero;"/>
                    </g>
                    <g transform="matrix(1,0,0,1,935.471,221.3)">
                        <path d="M0,-21.445C2.385,-22.403 4.657,-23.579 6.868,-24.89C9.504,-26.453 12.015,-28.2 14.459,-30.038C16.521,-31.588 18.539,-33.199 20.5,-34.879C21.633,-35.849 22.799,-36.781 23.94,-37.741C24.17,-37.934 24.174,-37.85 24.235,-37.615C24.649,-36.061 24.936,-34.48 25.249,-32.904C25.676,-30.757 26.018,-28.594 26.256,-26.419C26.531,-23.908 26.631,-21.383 26.481,-18.862C26.295,-15.713 25.729,-12.625 24.635,-9.655C23.975,-7.865 23.11,-6.172 22.086,-4.563C20.771,-2.497 19.206,-0.633 17.395,1.008C15.19,3.005 12.755,4.678 10.146,6.117C6.605,8.07 2.855,9.501 -0.994,10.677C-4.668,11.799 -8.421,12.611 -12.208,13.252C-13.235,13.426 -14.264,13.612 -15.311,13.585C-17.522,13.53 -19.643,13.033 -21.701,12.234C-24.829,11.021 -27.611,9.125 -30.644,7.722C-32.306,6.952 -34.021,6.388 -35.867,6.264C-38.241,6.104 -40.254,6.916 -41.952,8.522C-43.226,9.725 -44.43,11.001 -45.685,12.225C-47.794,14.284 -50.264,15.679 -53.197,16.166C-55.144,16.489 -57.093,16.387 -59.039,16.11C-61.743,15.724 -64.392,15.103 -66.99,14.267C-70.784,13.048 -74.315,11.296 -77.479,8.87C-80.477,6.572 -82.913,3.764 -84.841,0.501C-86.78,-2.781 -87.991,-6.33 -88.81,-10.02C-89.169,-11.638 -89.387,-13.29 -89.556,-14.947C-89.793,-17.269 -89.935,-19.593 -89.875,-21.924C-89.792,-25.196 -89.541,-28.458 -89.035,-31.794C-88.647,-31.446 -88.297,-31.139 -87.952,-30.824C-85.843,-28.894 -83.552,-27.198 -81.091,-25.755C-78.31,-24.125 -75.359,-22.845 -72.239,-22.013C-70.128,-21.45 -67.972,-21.104 -65.787,-20.925C-63.983,-20.778 -62.175,-20.749 -60.379,-20.86C-58.264,-20.989 -56.138,-21.137 -54.075,-21.709C-53.812,-21.741 -53.545,-21.755 -53.285,-21.809C-51.391,-22.204 -49.512,-22.653 -47.651,-23.196C-45.509,-23.821 -43.394,-24.522 -41.305,-25.296C-39.272,-26.05 -37.264,-26.873 -35.275,-27.738C-34.688,-27.994 -34.333,-27.883 -33.871,-27.526C-30.552,-24.957 -27.004,-22.774 -23.086,-21.228C-18.772,-19.526 -14.325,-18.705 -9.672,-19.09C-6.317,-19.366 -3.111,-20.199 0,-21.445" style="fill:rgb(30,175,100);fill-rule:nonzero;"/>
                    </g>
                    <g transform="matrix(1,0,0,1,935.471,106.137)">
                        <path d="M0,93.718C-3.111,94.964 -6.317,95.797 -9.672,96.073C-14.325,96.458 -18.772,95.637 -23.086,93.935C-27.004,92.389 -30.552,90.206 -33.871,87.637C-34.333,87.28 -34.688,87.169 -35.275,87.425C-37.264,88.29 -39.272,89.113 -41.305,89.867C-43.394,90.641 -45.509,91.342 -47.651,91.967C-49.512,92.51 -51.391,92.959 -53.285,93.354C-53.545,93.408 -53.812,93.422 -54.075,93.454C-53.422,92.695 -52.769,91.935 -52.113,91.176C-49.46,88.104 -47.592,84.612 -46.493,80.705C-44.991,75.366 -43.42,70.045 -42.172,64.638C-41.255,60.66 -40.447,56.661 -39.903,52.612C-39.514,49.71 -39.266,46.799 -39.096,43.876C-38.939,41.19 -38.981,38.508 -39.148,35.832C-39.654,27.738 -41.432,19.918 -44.711,12.502C-46.676,8.058 -50.06,5.013 -54.861,3.762C-56.936,3.221 -59.007,3.391 -61.045,4.028C-61.206,4.078 -61.359,4.175 -61.54,4.125C-58.447,1.43 -55.17,-0.949 -51.089,-1.936C-47.764,-2.74 -44.681,-2.096 -41.803,-0.325C-38.948,1.43 -36.748,3.864 -34.777,6.528C-32.198,10.014 -30.139,13.806 -28.266,17.705C-27.874,18.521 -27.862,18.522 -27.227,17.878C-23.703,14.305 -19.949,11.002 -15.784,8.189C-11.588,5.355 -7.107,3.149 -2.102,2.142C1.794,1.358 5.679,1.444 9.549,2.339C11.33,2.751 13.063,3.314 14.752,4.011C14.874,4.062 15.012,4.082 15.074,4.221C10.104,4.318 5.804,6.213 1.888,9.138C-0.001,10.55 -1.685,12.174 -2.983,14.147C-4.062,15.785 -4.927,17.55 -5.771,19.319C-7.494,22.931 -8.903,26.66 -9.908,30.538C-10.767,33.854 -11.311,37.22 -11.596,40.636C-11.817,43.279 -11.864,45.924 -11.761,48.565C-11.634,51.809 -11.331,55.043 -10.913,58.267C-10.214,63.672 -9.259,69.034 -8.388,74.411C-7.904,77.39 -7.491,80.38 -7.015,83.359C-6.32,87.693 -3.937,90.931 -0.419,93.421C-0.279,93.519 -0.14,93.619 0,93.718" style="fill:rgb(235,220,134);fill-rule:nonzero;"/>
                    </g>
                    <g transform="matrix(1,0,0,1,928.472,71.3629)">
                        <path d="M0,-49.586C1.413,-49.586 2.826,-49.587 4.238,-49.587C7.676,-49.431 11.036,-48.856 14.297,-47.738C16.815,-46.875 17.379,-45.224 15.86,-43.041C14.777,-41.482 13.279,-40.357 11.726,-39.314C9.699,-37.953 7.529,-36.864 5.246,-36.003C2.854,-35.101 0.572,-35.982 -0.875,-38.359C-1.332,-39.108 -1.683,-39.908 -1.924,-40.751C-1.996,-41.003 -2.101,-41.116 -2.371,-41.164C-7.687,-42.106 -12.377,-40.878 -16.312,-37.111C-19.515,-34.043 -21.414,-30.198 -22.741,-26.038C-23.938,-22.285 -24.53,-18.426 -24.718,-14.493C-24.885,-10.997 -24.65,-7.53 -24.109,-4.078C-24.003,-3.486 -23.859,-2.898 -23.798,-2.302C-23.723,-1.567 -23.94,-0.926 -24.579,-0.473C-25.247,0.001 -26.011,-0.08 -26.762,-0.068C-28.544,-0.613 -30.326,-1.158 -32.108,-1.703C-32.119,-2.126 -32.13,-2.548 -32.14,-2.97C-32.114,-4.817 -32.107,-6.664 -32.005,-8.508C-31.601,-15.814 -30.5,-22.977 -27.673,-29.787C-25.569,-34.855 -22.594,-39.299 -18.329,-42.815C-14.824,-45.704 -10.828,-47.603 -6.424,-48.664C-4.312,-49.172 -2.17,-49.48 0,-49.586" style="fill:rgb(115,78,74);fill-rule:nonzero;"/>
                    </g>
                    <g transform="matrix(1,0,0,1,901.71,75.2349)">
                        <path d="M0,-3.94C0.751,-3.952 1.515,-3.871 2.183,-4.345C2.821,-4.798 3.039,-5.439 2.964,-6.174C2.902,-6.771 2.759,-7.358 2.652,-7.95C2.987,-7.981 3.323,-8.011 3.659,-8.041C5.018,-7.28 6.438,-6.637 7.775,-5.83C11.009,-3.877 12.998,-0.968 14.301,2.489C14.499,3.016 14.706,3.54 14.857,4.101C14.101,3.455 13.359,2.817 12.587,2.218C9.607,-0.092 6.245,-1.67 2.723,-2.942C1.813,-3.271 0.907,-3.607 0,-3.94" style="fill:rgb(56,110,53);fill-rule:nonzero;"/>
                    </g>
                    <g transform="matrix(1,0,0,1,896.332,69.6596)">
                        <path d="M0,-1.267C0.01,-0.845 0.021,-0.422 0.031,0C-1.185,-0.4 -2.44,-0.677 -3.627,-1.17C-2.418,-1.203 -1.209,-1.235 0,-1.267" style="fill:rgb(56,110,53);fill-rule:nonzero;"/>
                    </g>
                </g>
            </g>
        </g>
    </g>
    <defs>
        <linearGradient id="_Linear1" x1="0" y1="0" x2="1" y2="0" gradientUnits="userSpaceOnUse" gradientTransform="matrix(-0.119934,0.992782,0.992782,0.119934,0.559982,-0.496405)"><stop offset="0" style="stop-color:rgb(15,84,42);stop-opacity:1"/><stop offset="0.21" style="stop-color:rgb(15,84,42);stop-opacity:1"/><stop offset="0.85" style="stop-color:rgb(32,176,100);stop-opacity:1"/><stop offset="1" style="stop-color:rgb(32,176,100);stop-opacity:1"/></linearGradient>
    </defs>
</svg>
