<svg class="rich-terminal" viewBox="0 0 1238 1270.0" xmlns="http://www.w3.org/2000/svg">
    <!-- Generated with Rich https://www.textualize.io -->
    <style>

    @font-face {
        font-family: "Fira Code";
        src: local("FiraCode-Regular"),
                url("https://cdnjs.cloudflare.com/ajax/libs/firacode/6.2.0/woff2/FiraCode-Regular.woff2") format("woff2"),
                url("https://cdnjs.cloudflare.com/ajax/libs/firacode/6.2.0/woff/FiraCode-Regular.woff") format("woff");
        font-style: normal;
        font-weight: 400;
    }
    @font-face {
        font-family: "Fira Code";
        src: local("FiraCode-Bold"),
                url("https://cdnjs.cloudflare.com/ajax/libs/firacode/6.2.0/woff2/FiraCode-Bold.woff2") format("woff2"),
                url("https://cdnjs.cloudflare.com/ajax/libs/firacode/6.2.0/woff/FiraCode-Bold.woff") format("woff");
        font-style: bold;
        font-weight: 700;
    }

    .terminal-matrix {
        font-family: Fira Code, monospace;
        font-size: 20px;
        line-height: 24.4px;
        font-variant-east-asian: full-width;
    }

    .terminal-title {
        font-size: 18px;
        font-weight: bold;
        font-family: arial;
    }

    .terminal-r1 { fill: #c5c8c6 }
.terminal-r2 { fill: #e0e0e0 }
.terminal-r3 { fill: #a0a3a6 }
.terminal-r4 { fill: #121212 }
.terminal-r5 { fill: #0178d4;font-weight: bold }
.terminal-r6 { fill: #a0a0a0;font-style: italic; }
.terminal-r7 { fill: #008139 }
.terminal-r8 { fill: #b93c5b }
.terminal-r9 { fill: #191919 }
.terminal-r10 { fill: #7f7f7f }
.terminal-r11 { fill: #2d2d2d }
.terminal-r12 { fill: #7ae998 }
.terminal-r13 { fill: #e0e0e0;font-weight: bold }
.terminal-r14 { fill: #0a180e;font-weight: bold }
.terminal-r15 { fill: #000000 }
.terminal-r16 { fill: #495259 }
.terminal-r17 { fill: #ffa62b;font-weight: bold }
    </style>

    <defs>
    <clipPath id="terminal-clip-terminal">
      <rect x="0" y="0" width="1219.0" height="1219.0" />
    </clipPath>
    <clipPath id="terminal-line-0">
    <rect x="0" y="1.5" width="1220" height="24.65"/>
            </clipPath>
<clipPath id="terminal-line-1">
    <rect x="0" y="25.9" width="1220" height="24.65"/>
            </clipPath>
<clipPath id="terminal-line-2">
    <rect x="0" y="50.3" width="1220" height="24.65"/>
            </clipPath>
<clipPath id="terminal-line-3">
    <rect x="0" y="74.7" width="1220" height="24.65"/>
            </clipPath>
<clipPath id="terminal-line-4">
    <rect x="0" y="99.1" width="1220" height="24.65"/>
            </clipPath>
<clipPath id="terminal-line-5">
    <rect x="0" y="123.5" width="1220" height="24.65"/>
            </clipPath>
<clipPath id="terminal-line-6">
    <rect x="0" y="147.9" width="1220" height="24.65"/>
            </clipPath>
<clipPath id="terminal-line-7">
    <rect x="0" y="172.3" width="1220" height="24.65"/>
            </clipPath>
<clipPath id="terminal-line-8">
    <rect x="0" y="196.7" width="1220" height="24.65"/>
            </clipPath>
<clipPath id="terminal-line-9">
    <rect x="0" y="221.1" width="1220" height="24.65"/>
            </clipPath>
<clipPath id="terminal-line-10">
    <rect x="0" y="245.5" width="1220" height="24.65"/>
            </clipPath>
<clipPath id="terminal-line-11">
    <rect x="0" y="269.9" width="1220" height="24.65"/>
            </clipPath>
<clipPath id="terminal-line-12">
    <rect x="0" y="294.3" width="1220" height="24.65"/>
            </clipPath>
<clipPath id="terminal-line-13">
    <rect x="0" y="318.7" width="1220" height="24.65"/>
            </clipPath>
<clipPath id="terminal-line-14">
    <rect x="0" y="343.1" width="1220" height="24.65"/>
            </clipPath>
<clipPath id="terminal-line-15">
    <rect x="0" y="367.5" width="1220" height="24.65"/>
            </clipPath>
<clipPath id="terminal-line-16">
    <rect x="0" y="391.9" width="1220" height="24.65"/>
            </clipPath>
<clipPath id="terminal-line-17">
    <rect x="0" y="416.3" width="1220" height="24.65"/>
            </clipPath>
<clipPath id="terminal-line-18">
    <rect x="0" y="440.7" width="1220" height="24.65"/>
            </clipPath>
<clipPath id="terminal-line-19">
    <rect x="0" y="465.1" width="1220" height="24.65"/>
            </clipPath>
<clipPath id="terminal-line-20">
    <rect x="0" y="489.5" width="1220" height="24.65"/>
            </clipPath>
<clipPath id="terminal-line-21">
    <rect x="0" y="513.9" width="1220" height="24.65"/>
            </clipPath>
<clipPath id="terminal-line-22">
    <rect x="0" y="538.3" width="1220" height="24.65"/>
            </clipPath>
<clipPath id="terminal-line-23">
    <rect x="0" y="562.7" width="1220" height="24.65"/>
            </clipPath>
<clipPath id="terminal-line-24">
    <rect x="0" y="587.1" width="1220" height="24.65"/>
            </clipPath>
<clipPath id="terminal-line-25">
    <rect x="0" y="611.5" width="1220" height="24.65"/>
            </clipPath>
<clipPath id="terminal-line-26">
    <rect x="0" y="635.9" width="1220" height="24.65"/>
            </clipPath>
<clipPath id="terminal-line-27">
    <rect x="0" y="660.3" width="1220" height="24.65"/>
            </clipPath>
<clipPath id="terminal-line-28">
    <rect x="0" y="684.7" width="1220" height="24.65"/>
            </clipPath>
<clipPath id="terminal-line-29">
    <rect x="0" y="709.1" width="1220" height="24.65"/>
            </clipPath>
<clipPath id="terminal-line-30">
    <rect x="0" y="733.5" width="1220" height="24.65"/>
            </clipPath>
<clipPath id="terminal-line-31">
    <rect x="0" y="757.9" width="1220" height="24.65"/>
            </clipPath>
<clipPath id="terminal-line-32">
    <rect x="0" y="782.3" width="1220" height="24.65"/>
            </clipPath>
<clipPath id="terminal-line-33">
    <rect x="0" y="806.7" width="1220" height="24.65"/>
            </clipPath>
<clipPath id="terminal-line-34">
    <rect x="0" y="831.1" width="1220" height="24.65"/>
            </clipPath>
<clipPath id="terminal-line-35">
    <rect x="0" y="855.5" width="1220" height="24.65"/>
            </clipPath>
<clipPath id="terminal-line-36">
    <rect x="0" y="879.9" width="1220" height="24.65"/>
            </clipPath>
<clipPath id="terminal-line-37">
    <rect x="0" y="904.3" width="1220" height="24.65"/>
            </clipPath>
<clipPath id="terminal-line-38">
    <rect x="0" y="928.7" width="1220" height="24.65"/>
            </clipPath>
<clipPath id="terminal-line-39">
    <rect x="0" y="953.1" width="1220" height="24.65"/>
            </clipPath>
<clipPath id="terminal-line-40">
    <rect x="0" y="977.5" width="1220" height="24.65"/>
            </clipPath>
<clipPath id="terminal-line-41">
    <rect x="0" y="1001.9" width="1220" height="24.65"/>
            </clipPath>
<clipPath id="terminal-line-42">
    <rect x="0" y="1026.3" width="1220" height="24.65"/>
            </clipPath>
<clipPath id="terminal-line-43">
    <rect x="0" y="1050.7" width="1220" height="24.65"/>
            </clipPath>
<clipPath id="terminal-line-44">
    <rect x="0" y="1075.1" width="1220" height="24.65"/>
            </clipPath>
<clipPath id="terminal-line-45">
    <rect x="0" y="1099.5" width="1220" height="24.65"/>
            </clipPath>
<clipPath id="terminal-line-46">
    <rect x="0" y="1123.9" width="1220" height="24.65"/>
            </clipPath>
<clipPath id="terminal-line-47">
    <rect x="0" y="1148.3" width="1220" height="24.65"/>
            </clipPath>
<clipPath id="terminal-line-48">
    <rect x="0" y="1172.7" width="1220" height="24.65"/>
            </clipPath>
    </defs>

    <rect fill="#292929" stroke="rgba(255,255,255,0.35)" stroke-width="1" x="1" y="1" width="1236" height="1268" rx="8"/><text class="terminal-title" fill="#c5c8c6" text-anchor="middle" x="618" y="27">nf-core&#160;configs&#160;create</text>
            <g transform="translate(26,22)">
            <circle cx="0" cy="0" r="7" fill="#ff5f57"/>
            <circle cx="22" cy="0" r="7" fill="#febc2e"/>
            <circle cx="44" cy="0" r="7" fill="#28c840"/>
            </g>
        
    <g transform="translate(9, 41)" clip-path="url(#terminal-clip-terminal)">
    <rect fill="#242f38" x="0" y="1.5" width="12.2" height="24.65" shape-rendering="crispEdges"/><rect fill="#242f38" x="12.2" y="1.5" width="12.2" height="24.65" shape-rendering="crispEdges"/><rect fill="#242f38" x="24.4" y="1.5" width="61" height="24.65" shape-rendering="crispEdges"/><rect fill="#242f38" x="85.4" y="1.5" width="12.2" height="24.65" shape-rendering="crispEdges"/><rect fill="#242f38" x="97.6" y="1.5" width="268.4" height="24.65" shape-rendering="crispEdges"/><rect fill="#242f38" x="366" y="1.5" width="36.6" height="24.65" shape-rendering="crispEdges"/><rect fill="#242f38" x="402.6" y="1.5" width="671" height="24.65" shape-rendering="crispEdges"/><rect fill="#242f38" x="1073.6" y="1.5" width="12.2" height="24.65" shape-rendering="crispEdges"/><rect fill="#242f38" x="1085.8" y="1.5" width="0" height="24.65" shape-rendering="crispEdges"/><rect fill="#242f38" x="1085.8" y="1.5" width="109.8" height="24.65" shape-rendering="crispEdges"/><rect fill="#003054" x="1195.6" y="1.5" width="24.4" height="24.65" shape-rendering="crispEdges"/><rect fill="#121212" x="0" y="25.9" width="1195.6" height="24.65" shape-rendering="crispEdges"/><rect fill="#003054" x="1195.6" y="25.9" width="24.4" height="24.65" shape-rendering="crispEdges"/><rect fill="#121212" x="0" y="50.3" width="1195.6" height="24.65" shape-rendering="crispEdges"/><rect fill="#003054" x="1195.6" y="50.3" width="24.4" height="24.65" shape-rendering="crispEdges"/><rect fill="#121212" x="0" y="74.7" width="24.4" height="24.65" shape-rendering="crispEdges"/><rect fill="#121212" x="24.4" y="74.7" width="488" height="24.65" shape-rendering="crispEdges"/><rect fill="#121212" x="512.4" y="74.7" width="158.6" height="24.65" shape-rendering="crispEdges"/><rect fill="#121212" x="671" y="74.7" width="500.2" height="24.65" shape-rendering="crispEdges"/><rect fill="#121212" x="1171.2" y="74.7" width="24.4" height="24.65" shape-rendering="crispEdges"/><rect fill="#003054" x="1195.6" y="74.7" width="24.4" height="24.65" shape-rendering="crispEdges"/><rect fill="#121212" x="0" y="99.1" width="1195.6" height="24.65" shape-rendering="crispEdges"/><rect fill="#003054" x="1195.6" y="99.1" width="24.4" height="24.65" shape-rendering="crispEdges"/><rect fill="#121212" x="0" y="123.5" width="1195.6" height="24.65" shape-rendering="crispEdges"/><rect fill="#003054" x="1195.6" y="123.5" width="24.4" height="24.65" shape-rendering="crispEdges"/><rect fill="#121212" x="0" y="147.9" width="1195.6" height="24.65" shape-rendering="crispEdges"/><rect fill="#003054" x="1195.6" y="147.9" width="24.4" height="24.65" shape-rendering="crispEdges"/><rect fill="#121212" x="0" y="172.3" width="24.4" height="24.65" shape-rendering="crispEdges"/><rect fill="#121212" x="24.4" y="172.3" width="536.8" height="24.65" shape-rendering="crispEdges"/><rect fill="#121212" x="561.2" y="172.3" width="634.4" height="24.65" shape-rendering="crispEdges"/><rect fill="#003054" x="1195.6" y="172.3" width="24.4" height="24.65" shape-rendering="crispEdges"/><rect fill="#121212" x="0" y="196.7" width="1195.6" height="24.65" shape-rendering="crispEdges"/><rect fill="#003054" x="1195.6" y="196.7" width="24.4" height="24.65" shape-rendering="crispEdges"/><rect fill="#121212" x="0" y="221.1" width="12.2" height="24.65" shape-rendering="crispEdges"/><rect fill="#008139" x="12.2" y="221.1" width="12.2" height="24.65" shape-rendering="crispEdges"/><rect fill="#1e1e1e" x="24.4" y="221.1" width="1146.8" height="24.65" shape-rendering="crispEdges"/><rect fill="#121212" x="1171.2" y="221.1" width="12.2" height="24.65" shape-rendering="crispEdges"/><rect fill="#121212" x="1183.4" y="221.1" width="12.2" height="24.65" shape-rendering="crispEdges"/><rect fill="#003054" x="1195.6" y="221.1" width="24.4" height="24.65" shape-rendering="crispEdges"/><rect fill="#121212" x="0" y="245.5" width="12.2" height="24.65" shape-rendering="crispEdges"/><rect fill="#008139" x="12.2" y="245.5" width="12.2" height="24.65" shape-rendering="crispEdges"/><rect fill="#1e1e1e" x="24.4" y="245.5" width="24.4" height="24.65" shape-rendering="crispEdges"/><rect fill="#1e1e1e" x="48.8" y="245.5" width="1098" height="24.65" shape-rendering="crispEdges"/><rect fill="#1e1e1e" x="1146.8" y="245.5" width="24.4" height="24.65" shape-rendering="crispEdges"/><rect fill="#121212" x="1171.2" y="245.5" width="12.2" height="24.65" shape-rendering="crispEdges"/><rect fill="#121212" x="1183.4" y="245.5" width="12.2" height="24.65" shape-rendering="crispEdges"/><rect fill="#003054" x="1195.6" y="245.5" width="24.4" height="24.65" shape-rendering="crispEdges"/><rect fill="#121212" x="0" y="269.9" width="12.2" height="24.65" shape-rendering="crispEdges"/><rect fill="#008139" x="12.2" y="269.9" width="12.2" height="24.65" shape-rendering="crispEdges"/><rect fill="#1e1e1e" x="24.4" y="269.9" width="1146.8" height="24.65" shape-rendering="crispEdges"/><rect fill="#121212" x="1171.2" y="269.9" width="12.2" height="24.65" shape-rendering="crispEdges"/><rect fill="#121212" x="1183.4" y="269.9" width="12.2" height="24.65" shape-rendering="crispEdges"/><rect fill="#003054" x="1195.6" y="269.9" width="24.4" height="24.65" shape-rendering="crispEdges"/><rect fill="#121212" x="0" y="294.3" width="24.4" height="24.65" shape-rendering="crispEdges"/><rect fill="#121212" x="24.4" y="294.3" width="0" height="24.65" shape-rendering="crispEdges"/><rect fill="#121212" x="24.4" y="294.3" width="1171.2" height="24.65" shape-rendering="crispEdges"/><rect fill="#003054" x="1195.6" y="294.3" width="24.4" height="24.65" shape-rendering="crispEdges"/><rect fill="#121212" x="0" y="318.7" width="1195.6" height="24.65" shape-rendering="crispEdges"/><rect fill="#003054" x="1195.6" y="318.7" width="24.4" height="24.65" shape-rendering="crispEdges"/><rect fill="#121212" x="0" y="343.1" width="1195.6" height="24.65" shape-rendering="crispEdges"/><rect fill="#003054" x="1195.6" y="343.1" width="24.4" height="24.65" shape-rendering="crispEdges"/><rect fill="#121212" x="0" y="367.5" width="1195.6" height="24.65" shape-rendering="crispEdges"/><rect fill="#003054" x="1195.6" y="367.5" width="24.4" height="24.65" shape-rendering="crispEdges"/><rect fill="#121212" x="0" y="391.9" width="24.4" height="24.65" shape-rendering="crispEdges"/><rect fill="#121212" x="24.4" y="391.9" width="207.4" height="24.65" shape-rendering="crispEdges"/><rect fill="#121212" x="231.8" y="391.9" width="390.4" height="24.65" shape-rendering="crispEdges"/><rect fill="#121212" x="622.2" y="391.9" width="280.6" height="24.65" shape-rendering="crispEdges"/><rect fill="#121212" x="902.8" y="391.9" width="292.8" height="24.65" shape-rendering="crispEdges"/><rect fill="#003054" x="1195.6" y="391.9" width="24.4" height="24.65" shape-rendering="crispEdges"/><rect fill="#121212" x="0" y="416.3" width="1195.6" height="24.65" shape-rendering="crispEdges"/><rect fill="#003054" x="1195.6" y="416.3" width="24.4" height="24.65" shape-rendering="crispEdges"/><rect fill="#121212" x="0" y="440.7" width="12.2" height="24.65" shape-rendering="crispEdges"/><rect fill="#008139" x="12.2" y="440.7" width="12.2" height="24.65" shape-rendering="crispEdges"/><rect fill="#1e1e1e" x="24.4" y="440.7" width="549" height="24.65" shape-rendering="crispEdges"/><rect fill="#121212" x="573.4" y="440.7" width="12.2" height="24.65" shape-rendering="crispEdges"/><rect fill="#121212" x="585.6" y="440.7" width="24.4" height="24.65" shape-rendering="crispEdges"/><rect fill="#008139" x="610" y="440.7" width="12.2" height="24.65" shape-rendering="crispEdges"/><rect fill="#1e1e1e" x="622.2" y="440.7" width="549" height="24.65" shape-rendering="crispEdges"/><rect fill="#121212" x="1171.2" y="440.7" width="12.2" height="24.65" shape-rendering="crispEdges"/><rect fill="#121212" x="1183.4" y="440.7" width="12.2" height="24.65" shape-rendering="crispEdges"/><rect fill="#003054" x="1195.6" y="440.7" width="24.4" height="24.65" shape-rendering="crispEdges"/><rect fill="#121212" x="0" y="465.1" width="12.2" height="24.65" shape-rendering="crispEdges"/><rect fill="#008139" x="12.2" y="465.1" width="12.2" height="24.65" shape-rendering="crispEdges"/><rect fill="#1e1e1e" x="24.4" y="465.1" width="24.4" height="24.65" shape-rendering="crispEdges"/><rect fill="#1e1e1e" x="48.8" y="465.1" width="500.2" height="24.65" shape-rendering="crispEdges"/><rect fill="#1e1e1e" x="549" y="465.1" width="24.4" height="24.65" shape-rendering="crispEdges"/><rect fill="#121212" x="573.4" y="465.1" width="12.2" height="24.65" shape-rendering="crispEdges"/><rect fill="#121212" x="585.6" y="465.1" width="24.4" height="24.65" shape-rendering="crispEdges"/><rect fill="#008139" x="610" y="465.1" width="12.2" height="24.65" shape-rendering="crispEdges"/><rect fill="#1e1e1e" x="622.2" y="465.1" width="24.4" height="24.65" shape-rendering="crispEdges"/><rect fill="#1e1e1e" x="646.6" y="465.1" width="500.2" height="24.65" shape-rendering="crispEdges"/><rect fill="#1e1e1e" x="1146.8" y="465.1" width="24.4" height="24.65" shape-rendering="crispEdges"/><rect fill="#121212" x="1171.2" y="465.1" width="12.2" height="24.65" shape-rendering="crispEdges"/><rect fill="#121212" x="1183.4" y="465.1" width="12.2" height="24.65" shape-rendering="crispEdges"/><rect fill="#003054" x="1195.6" y="465.1" width="24.4" height="24.65" shape-rendering="crispEdges"/><rect fill="#121212" x="0" y="489.5" width="12.2" height="24.65" shape-rendering="crispEdges"/><rect fill="#008139" x="12.2" y="489.5" width="12.2" height="24.65" shape-rendering="crispEdges"/><rect fill="#1e1e1e" x="24.4" y="489.5" width="549" height="24.65" shape-rendering="crispEdges"/><rect fill="#121212" x="573.4" y="489.5" width="12.2" height="24.65" shape-rendering="crispEdges"/><rect fill="#121212" x="585.6" y="489.5" width="24.4" height="24.65" shape-rendering="crispEdges"/><rect fill="#008139" x="610" y="489.5" width="12.2" height="24.65" shape-rendering="crispEdges"/><rect fill="#1e1e1e" x="622.2" y="489.5" width="549" height="24.65" shape-rendering="crispEdges"/><rect fill="#121212" x="1171.2" y="489.5" width="12.2" height="24.65" shape-rendering="crispEdges"/><rect fill="#121212" x="1183.4" y="489.5" width="12.2" height="24.65" shape-rendering="crispEdges"/><rect fill="#003054" x="1195.6" y="489.5" width="24.4" height="24.65" shape-rendering="crispEdges"/><rect fill="#121212" x="0" y="513.9" width="24.4" height="24.65" shape-rendering="crispEdges"/><rect fill="#121212" x="24.4" y="513.9" width="0" height="24.65" shape-rendering="crispEdges"/><rect fill="#121212" x="24.4" y="513.9" width="597.8" height="24.65" shape-rendering="crispEdges"/><rect fill="#121212" x="622.2" y="513.9" width="0" height="24.65" shape-rendering="crispEdges"/><rect fill="#121212" x="622.2" y="513.9" width="573.4" height="24.65" shape-rendering="crispEdges"/><rect fill="#003054" x="1195.6" y="513.9" width="24.4" height="24.65" shape-rendering="crispEdges"/><rect fill="#121212" x="0" y="538.3" width="1195.6" height="24.65" shape-rendering="crispEdges"/><rect fill="#003054" x="1195.6" y="538.3" width="24.4" height="24.65" shape-rendering="crispEdges"/><rect fill="#121212" x="0" y="562.7" width="1195.6" height="24.65" shape-rendering="crispEdges"/><rect fill="#003054" x="1195.6" y="562.7" width="24.4" height="24.65" shape-rendering="crispEdges"/><rect fill="#121212" x="0" y="587.1" width="12.2" height="24.65" shape-rendering="crispEdges"/><rect fill="#121212" x="12.2" y="587.1" width="170.8" height="24.65" shape-rendering="crispEdges"/><rect fill="#121212" x="183" y="587.1" width="1012.6" height="24.65" shape-rendering="crispEdges"/><rect fill="#003054" x="1195.6" y="587.1" width="24.4" height="24.65" shape-rendering="crispEdges"/><rect fill="#121212" x="0" y="611.5" width="1195.6" height="24.65" shape-rendering="crispEdges"/><rect fill="#003054" x="1195.6" y="611.5" width="24.4" height="24.65" shape-rendering="crispEdges"/><rect fill="#191919" x="0" y="635.9" width="12.2" height="24.65" shape-rendering="crispEdges"/><rect fill="#1e1e1e" x="12.2" y="635.9" width="1171.2" height="24.65" shape-rendering="crispEdges"/><rect fill="#121212" x="1183.4" y="635.9" width="12.2" height="24.65" shape-rendering="crispEdges"/><rect fill="#003054" x="1195.6" y="635.9" width="24.4" height="24.65" shape-rendering="crispEdges"/><rect fill="#191919" x="0" y="660.3" width="12.2" height="24.65" shape-rendering="crispEdges"/><rect fill="#1e1e1e" x="12.2" y="660.3" width="24.4" height="24.65" shape-rendering="crispEdges"/><rect fill="#1e1e1e" x="36.6" y="660.3" width="146.4" height="24.65" shape-rendering="crispEdges"/><rect fill="#1e1e1e" x="183" y="660.3" width="963.8" height="24.65" shape-rendering="crispEdges"/><rect fill="#1e1e1e" x="1146.8" y="660.3" width="12.2" height="24.65" shape-rendering="crispEdges"/><rect fill="#1e1e1e" x="1159" y="660.3" width="24.4" height="24.65" shape-rendering="crispEdges"/><rect fill="#121212" x="1183.4" y="660.3" width="12.2" height="24.65" shape-rendering="crispEdges"/><rect fill="#003054" x="1195.6" y="660.3" width="24.4" height="24.65" shape-rendering="crispEdges"/><rect fill="#191919" x="0" y="684.7" width="12.2" height="24.65" shape-rendering="crispEdges"/><rect fill="#1e1e1e" x="12.2" y="684.7" width="1171.2" height="24.65" shape-rendering="crispEdges"/><rect fill="#121212" x="1183.4" y="684.7" width="12.2" height="24.65" shape-rendering="crispEdges"/><rect fill="#003054" x="1195.6" y="684.7" width="24.4" height="24.65" shape-rendering="crispEdges"/><rect fill="#121212" x="0" y="709.1" width="1195.6" height="24.65" shape-rendering="crispEdges"/><rect fill="#003054" x="1195.6" y="709.1" width="24.4" height="24.65" shape-rendering="crispEdges"/><rect fill="#121212" x="0" y="733.5" width="1195.6" height="24.65" shape-rendering="crispEdges"/><rect fill="#003054" x="1195.6" y="733.5" width="24.4" height="24.65" shape-rendering="crispEdges"/><rect fill="#121212" x="0" y="757.9" width="24.4" height="24.65" shape-rendering="crispEdges"/><rect fill="#121212" x="24.4" y="757.9" width="427" height="24.65" shape-rendering="crispEdges"/><rect fill="#121212" x="451.4" y="757.9" width="744.2" height="24.65" shape-rendering="crispEdges"/><rect fill="#003054" x="1195.6" y="757.9" width="24.4" height="24.65" shape-rendering="crispEdges"/><rect fill="#121212" x="0" y="782.3" width="1195.6" height="24.65" shape-rendering="crispEdges"/><rect fill="#003054" x="1195.6" y="782.3" width="24.4" height="24.65" shape-rendering="crispEdges"/><rect fill="#121212" x="0" y="806.7" width="12.2" height="24.65" shape-rendering="crispEdges"/><rect fill="#008139" x="12.2" y="806.7" width="12.2" height="24.65" shape-rendering="crispEdges"/><rect fill="#1e1e1e" x="24.4" y="806.7" width="1146.8" height="24.65" shape-rendering="crispEdges"/><rect fill="#121212" x="1171.2" y="806.7" width="12.2" height="24.65" shape-rendering="crispEdges"/><rect fill="#121212" x="1183.4" y="806.7" width="12.2" height="24.65" shape-rendering="crispEdges"/><rect fill="#003054" x="1195.6" y="806.7" width="24.4" height="24.65" shape-rendering="crispEdges"/><rect fill="#121212" x="0" y="831.1" width="12.2" height="24.65" shape-rendering="crispEdges"/><rect fill="#008139" x="12.2" y="831.1" width="12.2" height="24.65" shape-rendering="crispEdges"/><rect fill="#1e1e1e" x="24.4" y="831.1" width="24.4" height="24.65" shape-rendering="crispEdges"/><rect fill="#1e1e1e" x="48.8" y="831.1" width="1098" height="24.65" shape-rendering="crispEdges"/><rect fill="#1e1e1e" x="1146.8" y="831.1" width="24.4" height="24.65" shape-rendering="crispEdges"/><rect fill="#121212" x="1171.2" y="831.1" width="12.2" height="24.65" shape-rendering="crispEdges"/><rect fill="#121212" x="1183.4" y="831.1" width="12.2" height="24.65" shape-rendering="crispEdges"/><rect fill="#003054" x="1195.6" y="831.1" width="24.4" height="24.65" shape-rendering="crispEdges"/><rect fill="#121212" x="0" y="855.5" width="12.2" height="24.65" shape-rendering="crispEdges"/><rect fill="#008139" x="12.2" y="855.5" width="12.2" height="24.65" shape-rendering="crispEdges"/><rect fill="#1e1e1e" x="24.4" y="855.5" width="1146.8" height="24.65" shape-rendering="crispEdges"/><rect fill="#121212" x="1171.2" y="855.5" width="12.2" height="24.65" shape-rendering="crispEdges"/><rect fill="#121212" x="1183.4" y="855.5" width="12.2" height="24.65" shape-rendering="crispEdges"/><rect fill="#003054" x="1195.6" y="855.5" width="24.4" height="24.65" shape-rendering="crispEdges"/><rect fill="#121212" x="0" y="879.9" width="24.4" height="24.65" shape-rendering="crispEdges"/><rect fill="#121212" x="24.4" y="879.9" width="0" height="24.65" shape-rendering="crispEdges"/><rect fill="#121212" x="24.4" y="879.9" width="1171.2" height="24.65" shape-rendering="crispEdges"/><rect fill="#003054" x="1195.6" y="879.9" width="24.4" height="24.65" shape-rendering="crispEdges"/><rect fill="#121212" x="0" y="904.3" width="1195.6" height="24.65" shape-rendering="crispEdges"/><rect fill="#003054" x="1195.6" y="904.3" width="24.4" height="24.65" shape-rendering="crispEdges"/><rect fill="#121212" x="0" y="928.7" width="1195.6" height="24.65" shape-rendering="crispEdges"/><rect fill="#003054" x="1195.6" y="928.7" width="24.4" height="24.65" shape-rendering="crispEdges"/><rect fill="#121212" x="0" y="953.1" width="1195.6" height="24.65" shape-rendering="crispEdges"/><rect fill="#003054" x="1195.6" y="953.1" width="24.4" height="24.65" shape-rendering="crispEdges"/><rect fill="#121212" x="0" y="977.5" width="24.4" height="24.65" shape-rendering="crispEdges"/><rect fill="#121212" x="24.4" y="977.5" width="1000.4" height="24.65" shape-rendering="crispEdges"/><rect fill="#121212" x="1024.8" y="977.5" width="170.8" height="24.65" shape-rendering="crispEdges"/><rect fill="#003054" x="1195.6" y="977.5" width="24.4" height="24.65" shape-rendering="crispEdges"/><rect fill="#121212" x="0" y="1001.9" width="1195.6" height="24.65" shape-rendering="crispEdges"/><rect fill="#003054" x="1195.6" y="1001.9" width="24.4" height="24.65" shape-rendering="crispEdges"/><rect fill="#121212" x="0" y="1026.3" width="12.2" height="24.65" shape-rendering="crispEdges"/><rect fill="#008139" x="12.2" y="1026.3" width="12.2" height="24.65" shape-rendering="crispEdges"/><rect fill="#272727" x="24.4" y="1026.3" width="1146.8" height="24.65" shape-rendering="crispEdges"/><rect fill="#121212" x="1171.2" y="1026.3" width="12.2" height="24.65" shape-rendering="crispEdges"/><rect fill="#121212" x="1183.4" y="1026.3" width="12.2" height="24.65" shape-rendering="crispEdges"/><rect fill="#003054" x="1195.6" y="1026.3" width="24.4" height="24.65" shape-rendering="crispEdges"/><rect fill="#121212" x="0" y="1050.7" width="12.2" height="24.65" shape-rendering="crispEdges"/><rect fill="#008139" x="12.2" y="1050.7" width="12.2" height="24.65" shape-rendering="crispEdges"/><rect fill="#272727" x="24.4" y="1050.7" width="24.4" height="24.65" shape-rendering="crispEdges"/><rect fill="#272727" x="48.8" y="1050.7" width="231.8" height="24.65" shape-rendering="crispEdges"/><rect fill="#e0e0e0" x="280.6" y="1050.7" width="12.2" height="24.65" shape-rendering="crispEdges"/><rect fill="#272727" x="292.8" y="1050.7" width="854" height="24.65" shape-rendering="crispEdges"/><rect fill="#272727" x="1146.8" y="1050.7" width="24.4" height="24.65" shape-rendering="crispEdges"/><rect fill="#121212" x="1171.2" y="1050.7" width="12.2" height="24.65" shape-rendering="crispEdges"/><rect fill="#121212" x="1183.4" y="1050.7" width="12.2" height="24.65" shape-rendering="crispEdges"/><rect fill="#003054" x="1195.6" y="1050.7" width="24.4" height="24.65" shape-rendering="crispEdges"/><rect fill="#121212" x="0" y="1075.1" width="12.2" height="24.65" shape-rendering="crispEdges"/><rect fill="#008139" x="12.2" y="1075.1" width="12.2" height="24.65" shape-rendering="crispEdges"/><rect fill="#272727" x="24.4" y="1075.1" width="1146.8" height="24.65" shape-rendering="crispEdges"/><rect fill="#121212" x="1171.2" y="1075.1" width="12.2" height="24.65" shape-rendering="crispEdges"/><rect fill="#121212" x="1183.4" y="1075.1" width="12.2" height="24.65" shape-rendering="crispEdges"/><rect fill="#003054" x="1195.6" y="1075.1" width="24.4" height="24.65" shape-rendering="crispEdges"/><rect fill="#121212" x="0" y="1099.5" width="24.4" height="24.65" shape-rendering="crispEdges"/><rect fill="#121212" x="24.4" y="1099.5" width="0" height="24.65" shape-rendering="crispEdges"/><rect fill="#121212" x="24.4" y="1099.5" width="1171.2" height="24.65" shape-rendering="crispEdges"/><rect fill="#003054" x="1195.6" y="1099.5" width="24.4" height="24.65" shape-rendering="crispEdges"/><rect fill="#121212" x="0" y="1123.9" width="1195.6" height="24.65" shape-rendering="crispEdges"/><rect fill="#003054" x="1195.6" y="1123.9" width="24.4" height="24.65" shape-rendering="crispEdges"/><rect fill="#121212" x="0" y="1148.3" width="378.2" height="24.65" shape-rendering="crispEdges"/><rect fill="#1e1e1e" x="378.2" y="1148.3" width="195.2" height="24.65" shape-rendering="crispEdges"/><rect fill="#121212" x="573.4" y="1148.3" width="36.6" height="24.65" shape-rendering="crispEdges"/><rect fill="#4ebf71" x="610" y="1148.3" width="195.2" height="24.65" shape-rendering="crispEdges"/><rect fill="#121212" x="805.2" y="1148.3" width="390.4" height="24.65" shape-rendering="crispEdges"/><rect fill="#003054" x="1195.6" y="1148.3" width="24.4" height="24.65" shape-rendering="crispEdges"/><rect fill="#121212" x="0" y="1172.7" width="378.2" height="24.65" shape-rendering="crispEdges"/><rect fill="#1e1e1e" x="378.2" y="1172.7" width="61" height="24.65" shape-rendering="crispEdges"/><rect fill="#1e1e1e" x="439.2" y="1172.7" width="73.2" height="24.65" shape-rendering="crispEdges"/><rect fill="#1e1e1e" x="512.4" y="1172.7" width="61" height="24.65" shape-rendering="crispEdges"/><rect fill="#121212" x="573.4" y="1172.7" width="36.6" height="24.65" shape-rendering="crispEdges"/><rect fill="#4ebf71" x="610" y="1172.7" width="61" height="24.65" shape-rendering="crispEdges"/><rect fill="#4ebf71" x="671" y="1172.7" width="73.2" height="24.65" shape-rendering="crispEdges"/><rect fill="#4ebf71" x="744.2" y="1172.7" width="61" height="24.65" shape-rendering="crispEdges"/><rect fill="#121212" x="805.2" y="1172.7" width="390.4" height="24.65" shape-rendering="crispEdges"/><rect fill="#003054" x="1195.6" y="1172.7" width="24.4" height="24.65" shape-rendering="crispEdges"/><rect fill="#242f38" x="0" y="1197.1" width="1049.2" height="24.65" shape-rendering="crispEdges"/><rect fill="#242f38" x="1049.2" y="1197.1" width="12.2" height="24.65" shape-rendering="crispEdges"/><rect fill="#242f38" x="1061.4" y="1197.1" width="24.4" height="24.65" shape-rendering="crispEdges"/><rect fill="#242f38" x="1085.8" y="1197.1" width="97.6" height="24.65" shape-rendering="crispEdges"/><rect fill="#242f38" x="1183.4" y="1197.1" width="12.2" height="24.65" shape-rendering="crispEdges"/><rect fill="#000000" x="1195.6" y="1197.1" width="24.4" height="24.65" shape-rendering="crispEdges"/>
    <g class="terminal-matrix">
    <text class="terminal-r2" x="12.2" y="20" textLength="12.2" clip-path="url(#terminal-line-0)">⭘</text><text class="terminal-r2" x="97.6" y="20" textLength="268.4" clip-path="url(#terminal-line-0)">nf-core&#160;configs&#160;create</text><text class="terminal-r3" x="366" y="20" textLength="36.6" clip-path="url(#terminal-line-0)">&#160;—&#160;</text><text class="terminal-r3" x="402.6" y="20" textLength="671" clip-path="url(#terminal-line-0)">Create&#160;a&#160;new&#160;nextflow&#160;config&#160;with&#160;an&#160;interactive&#160;inter…</text><text class="terminal-r1" x="1220" y="20" textLength="12.2" clip-path="url(#terminal-line-0)">
</text><text class="terminal-r1" x="1220" y="44.4" textLength="12.2" clip-path="url(#terminal-line-1)">
</text><text class="terminal-r1" x="1220" y="68.8" textLength="12.2" clip-path="url(#terminal-line-2)">
</text><text class="terminal-r5" x="512.4" y="93.2" textLength="158.6" clip-path="url(#terminal-line-3)">Basic&#160;details</text><text class="terminal-r1" x="1220" y="93.2" textLength="12.2" clip-path="url(#terminal-line-3)">
</text><text class="terminal-r1" x="1220" y="117.6" textLength="12.2" clip-path="url(#terminal-line-4)">
</text><text class="terminal-r1" x="1220" y="142" textLength="12.2" clip-path="url(#terminal-line-5)">
</text><text class="terminal-r1" x="1220" y="166.4" textLength="12.2" clip-path="url(#terminal-line-6)">
</text><text class="terminal-r6" x="24.4" y="190.8" textLength="536.8" clip-path="url(#terminal-line-7)">Config&#160;Name.&#160;Used&#160;for&#160;naming&#160;resulting&#160;file.</text><text class="terminal-r1" x="1220" y="190.8" textLength="12.2" clip-path="url(#terminal-line-7)">
</text><text class="terminal-r1" x="1220" y="215.2" textLength="12.2" clip-path="url(#terminal-line-8)">
</text><text class="terminal-r4" x="12.2" y="239.6" textLength="12.2" clip-path="url(#terminal-line-9)">▊</text><text class="terminal-r7" x="24.4" y="239.6" textLength="1146.8" clip-path="url(#terminal-line-9)">▔▔▔▔▔▔▔▔▔▔▔▔▔▔▔▔▔▔▔▔▔▔▔▔▔▔▔▔▔▔▔▔▔▔▔▔▔▔▔▔▔▔▔▔▔▔▔▔▔▔▔▔▔▔▔▔▔▔▔▔▔▔▔▔▔▔▔▔▔▔▔▔▔▔▔▔▔▔▔▔▔▔▔▔▔▔▔▔▔▔▔▔▔▔</text><text class="terminal-r7" x="1171.2" y="239.6" textLength="12.2" clip-path="url(#terminal-line-9)">▎</text><text class="terminal-r1" x="1220" y="239.6" textLength="12.2" clip-path="url(#terminal-line-9)">
</text><text class="terminal-r4" x="12.2" y="264" textLength="12.2" clip-path="url(#terminal-line-10)">▊</text><text class="terminal-r2" x="48.8" y="264" textLength="1098" clip-path="url(#terminal-line-10)">myconfig&#160;&#160;&#160;&#160;&#160;&#160;&#160;&#160;&#160;&#160;&#160;&#160;&#160;&#160;&#160;&#160;&#160;&#160;&#160;&#160;&#160;&#160;&#160;&#160;&#160;&#160;&#160;&#160;&#160;&#160;&#160;&#160;&#160;&#160;&#160;&#160;&#160;&#160;&#160;&#160;&#160;&#160;&#160;&#160;&#160;&#160;&#160;&#160;&#160;&#160;&#160;&#160;&#160;&#160;&#160;&#160;&#160;&#160;&#160;&#160;&#160;&#160;&#160;&#160;&#160;&#160;&#160;&#160;&#160;&#160;&#160;&#160;&#160;&#160;&#160;&#160;&#160;&#160;&#160;&#160;&#160;&#160;</text><text class="terminal-r7" x="1171.2" y="264" textLength="12.2" clip-path="url(#terminal-line-10)">▎</text><text class="terminal-r1" x="1220" y="264" textLength="12.2" clip-path="url(#terminal-line-10)">
</text><text class="terminal-r4" x="12.2" y="288.4" textLength="12.2" clip-path="url(#terminal-line-11)">▊</text><text class="terminal-r7" x="24.4" y="288.4" textLength="1146.8" clip-path="url(#terminal-line-11)">▁▁▁▁▁▁▁▁▁▁▁▁▁▁▁▁▁▁▁▁▁▁▁▁▁▁▁▁▁▁▁▁▁▁▁▁▁▁▁▁▁▁▁▁▁▁▁▁▁▁▁▁▁▁▁▁▁▁▁▁▁▁▁▁▁▁▁▁▁▁▁▁▁▁▁▁▁▁▁▁▁▁▁▁▁▁▁▁▁▁▁▁▁▁</text><text class="terminal-r7" x="1171.2" y="288.4" textLength="12.2" clip-path="url(#terminal-line-11)">▎</text><text class="terminal-r1" x="1220" y="288.4" textLength="12.2" clip-path="url(#terminal-line-11)">
</text><text class="terminal-r1" x="1220" y="312.8" textLength="12.2" clip-path="url(#terminal-line-12)">
</text><text class="terminal-r1" x="1220" y="337.2" textLength="12.2" clip-path="url(#terminal-line-13)">
</text><text class="terminal-r1" x="1220" y="361.6" textLength="12.2" clip-path="url(#terminal-line-14)">
</text><text class="terminal-r1" x="1220" y="386" textLength="12.2" clip-path="url(#terminal-line-15)">
</text><text class="terminal-r6" x="24.4" y="410.4" textLength="207.4" clip-path="url(#terminal-line-16)">Author&#160;full&#160;name.</text><text class="terminal-r6" x="622.2" y="410.4" textLength="280.6" clip-path="url(#terminal-line-16)">Author&#160;Git(Hub)&#160;handle.</text><text class="terminal-r1" x="1220" y="410.4" textLength="12.2" clip-path="url(#terminal-line-16)">
</text><text class="terminal-r1" x="1220" y="434.8" textLength="12.2" clip-path="url(#terminal-line-17)">
</text><text class="terminal-r4" x="12.2" y="459.2" textLength="12.2" clip-path="url(#terminal-line-18)">▊</text><text class="terminal-r7" x="24.4" y="459.2" textLength="549" clip-path="url(#terminal-line-18)">▔▔▔▔▔▔▔▔▔▔▔▔▔▔▔▔▔▔▔▔▔▔▔▔▔▔▔▔▔▔▔▔▔▔▔▔▔▔▔▔▔▔▔▔▔</text><text class="terminal-r7" x="573.4" y="459.2" textLength="12.2" clip-path="url(#terminal-line-18)">▎</text><text class="terminal-r4" x="610" y="459.2" textLength="12.2" clip-path="url(#terminal-line-18)">▊</text><text class="terminal-r7" x="622.2" y="459.2" textLength="549" clip-path="url(#terminal-line-18)">▔▔▔▔▔▔▔▔▔▔▔▔▔▔▔▔▔▔▔▔▔▔▔▔▔▔▔▔▔▔▔▔▔▔▔▔▔▔▔▔▔▔▔▔▔</text><text class="terminal-r7" x="1171.2" y="459.2" textLength="12.2" clip-path="url(#terminal-line-18)">▎</text><text class="terminal-r1" x="1220" y="459.2" textLength="12.2" clip-path="url(#terminal-line-18)">
</text><text class="terminal-r4" x="12.2" y="483.6" textLength="12.2" clip-path="url(#terminal-line-19)">▊</text><text class="terminal-r2" x="48.8" y="483.6" textLength="500.2" clip-path="url(#terminal-line-19)">my&#160;name&#160;&#160;&#160;&#160;&#160;&#160;&#160;&#160;&#160;&#160;&#160;&#160;&#160;&#160;&#160;&#160;&#160;&#160;&#160;&#160;&#160;&#160;&#160;&#160;&#160;&#160;&#160;&#160;&#160;&#160;&#160;&#160;&#160;&#160;</text><text class="terminal-r7" x="573.4" y="483.6" textLength="12.2" clip-path="url(#terminal-line-19)">▎</text><text class="terminal-r4" x="610" y="483.6" textLength="12.2" clip-path="url(#terminal-line-19)">▊</text><text class="terminal-r2" x="646.6" y="483.6" textLength="500.2" clip-path="url(#terminal-line-19)">@myhandle&#160;&#160;&#160;&#160;&#160;&#160;&#160;&#160;&#160;&#160;&#160;&#160;&#160;&#160;&#160;&#160;&#160;&#160;&#160;&#160;&#160;&#160;&#160;&#160;&#160;&#160;&#160;&#160;&#160;&#160;&#160;&#160;</text><text class="terminal-r7" x="1171.2" y="483.6" textLength="12.2" clip-path="url(#terminal-line-19)">▎</text><text class="terminal-r1" x="1220" y="483.6" textLength="12.2" clip-path="url(#terminal-line-19)">
</text><text class="terminal-r4" x="12.2" y="508" textLength="12.2" clip-path="url(#terminal-line-20)">▊</text><text class="terminal-r7" x="24.4" y="508" textLength="549" clip-path="url(#terminal-line-20)">▁▁▁▁▁▁▁▁▁▁▁▁▁▁▁▁▁▁▁▁▁▁▁▁▁▁▁▁▁▁▁▁▁▁▁▁▁▁▁▁▁▁▁▁▁</text><text class="terminal-r7" x="573.4" y="508" textLength="12.2" clip-path="url(#terminal-line-20)">▎</text><text class="terminal-r4" x="610" y="508" textLength="12.2" clip-path="url(#terminal-line-20)">▊</text><text class="terminal-r7" x="622.2" y="508" textLength="549" clip-path="url(#terminal-line-20)">▁▁▁▁▁▁▁▁▁▁▁▁▁▁▁▁▁▁▁▁▁▁▁▁▁▁▁▁▁▁▁▁▁▁▁▁▁▁▁▁▁▁▁▁▁</text><text class="terminal-r7" x="1171.2" y="508" textLength="12.2" clip-path="url(#terminal-line-20)">▎</text><text class="terminal-r1" x="1220" y="508" textLength="12.2" clip-path="url(#terminal-line-20)">
</text><text class="terminal-r1" x="1220" y="532.4" textLength="12.2" clip-path="url(#terminal-line-21)">
</text><text class="terminal-r1" x="1220" y="556.8" textLength="12.2" clip-path="url(#terminal-line-22)">
</text><text class="terminal-r1" x="1220" y="581.2" textLength="12.2" clip-path="url(#terminal-line-23)">
</text><text class="terminal-r6" x="12.2" y="605.6" textLength="170.8" clip-path="url(#terminal-line-24)">Pipeline&#160;name.</text><text class="terminal-r1" x="1220" y="605.6" textLength="12.2" clip-path="url(#terminal-line-24)">
</text><text class="terminal-r1" x="1220" y="630" textLength="12.2" clip-path="url(#terminal-line-25)">
</text><text class="terminal-r4" x="0" y="654.4" textLength="12.2" clip-path="url(#terminal-line-26)">▊</text><text class="terminal-r9" x="12.2" y="654.4" textLength="1171.2" clip-path="url(#terminal-line-26)">▔▔▔▔▔▔▔▔▔▔▔▔▔▔▔▔▔▔▔▔▔▔▔▔▔▔▔▔▔▔▔▔▔▔▔▔▔▔▔▔▔▔▔▔▔▔▔▔▔▔▔▔▔▔▔▔▔▔▔▔▔▔▔▔▔▔▔▔▔▔▔▔▔▔▔▔▔▔▔▔▔▔▔▔▔▔▔▔▔▔▔▔▔▔▔▔</text><text class="terminal-r9" x="1183.4" y="654.4" textLength="12.2" clip-path="url(#terminal-line-26)">▎</text><text class="terminal-r1" x="1220" y="654.4" textLength="12.2" clip-path="url(#terminal-line-26)">
</text><text class="terminal-r4" x="0" y="678.8" textLength="12.2" clip-path="url(#terminal-line-27)">▊</text><text class="terminal-r2" x="36.6" y="678.8" textLength="146.4" clip-path="url(#terminal-line-27)">scdownstream</text><text class="terminal-r10" x="1146.8" y="678.8" textLength="12.2" clip-path="url(#terminal-line-27)">▼</text><text class="terminal-r9" x="1183.4" y="678.8" textLength="12.2" clip-path="url(#terminal-line-27)">▎</text><text class="terminal-r1" x="1220" y="678.8" textLength="12.2" clip-path="url(#terminal-line-27)">
</text><text class="terminal-r4" x="0" y="703.2" textLength="12.2" clip-path="url(#terminal-line-28)">▊</text><text class="terminal-r9" x="12.2" y="703.2" textLength="1171.2" clip-path="url(#terminal-line-28)">▁▁▁▁▁▁▁▁▁▁▁▁▁▁▁▁▁▁▁▁▁▁▁▁▁▁▁▁▁▁▁▁▁▁▁▁▁▁▁▁▁▁▁▁▁▁▁▁▁▁▁▁▁▁▁▁▁▁▁▁▁▁▁▁▁▁▁▁▁▁▁▁▁▁▁▁▁▁▁▁▁▁▁▁▁▁▁▁▁▁▁▁▁▁▁▁</text><text class="terminal-r9" x="1183.4" y="703.2" textLength="12.2" clip-path="url(#terminal-line-28)">▎</text><text class="terminal-r1" x="1220" y="703.2" textLength="12.2" clip-path="url(#terminal-line-28)">
</text><text class="terminal-r1" x="1220" y="727.6" textLength="12.2" clip-path="url(#terminal-line-29)">
</text><text class="terminal-r1" x="1220" y="752" textLength="12.2" clip-path="url(#terminal-line-30)">
</text><text class="terminal-r6" x="24.4" y="776.4" textLength="427" clip-path="url(#terminal-line-31)">A&#160;short&#160;description&#160;of&#160;your&#160;config.</text><text class="terminal-r1" x="1220" y="776.4" textLength="12.2" clip-path="url(#terminal-line-31)">
</text><text class="terminal-r1" x="1220" y="800.8" textLength="12.2" clip-path="url(#terminal-line-32)">
</text><text class="terminal-r4" x="12.2" y="825.2" textLength="12.2" clip-path="url(#terminal-line-33)">▊</text><text class="terminal-r7" x="24.4" y="825.2" textLength="1146.8" clip-path="url(#terminal-line-33)">▔▔▔▔▔▔▔▔▔▔▔▔▔▔▔▔▔▔▔▔▔▔▔▔▔▔▔▔▔▔▔▔▔▔▔▔▔▔▔▔▔▔▔▔▔▔▔▔▔▔▔▔▔▔▔▔▔▔▔▔▔▔▔▔▔▔▔▔▔▔▔▔▔▔▔▔▔▔▔▔▔▔▔▔▔▔▔▔▔▔▔▔▔▔</text><text class="terminal-r7" x="1171.2" y="825.2" textLength="12.2" clip-path="url(#terminal-line-33)">▎</text><text class="terminal-r1" x="1220" y="825.2" textLength="12.2" clip-path="url(#terminal-line-33)">
</text><text class="terminal-r4" x="12.2" y="849.6" textLength="12.2" clip-path="url(#terminal-line-34)">▊</text><text class="terminal-r2" x="48.8" y="849.6" textLength="1098" clip-path="url(#terminal-line-34)">A&#160;cool&#160;description&#160;&#160;&#160;&#160;&#160;&#160;&#160;&#160;&#160;&#160;&#160;&#160;&#160;&#160;&#160;&#160;&#160;&#160;&#160;&#160;&#160;&#160;&#160;&#160;&#160;&#160;&#160;&#160;&#160;&#160;&#160;&#160;&#160;&#160;&#160;&#160;&#160;&#160;&#160;&#160;&#160;&#160;&#160;&#160;&#160;&#160;&#160;&#160;&#160;&#160;&#160;&#160;&#160;&#160;&#160;&#160;&#160;&#160;&#160;&#160;&#160;&#160;&#160;&#160;&#160;&#160;&#160;&#160;&#160;&#160;&#160;&#160;</text><text class="terminal-r7" x="1171.2" y="849.6" textLength="12.2" clip-path="url(#terminal-line-34)">▎</text><text class="terminal-r1" x="1220" y="849.6" textLength="12.2" clip-path="url(#terminal-line-34)">
</text><text class="terminal-r4" x="12.2" y="874" textLength="12.2" clip-path="url(#terminal-line-35)">▊</text><text class="terminal-r7" x="24.4" y="874" textLength="1146.8" clip-path="url(#terminal-line-35)">▁▁▁▁▁▁▁▁▁▁▁▁▁▁▁▁▁▁▁▁▁▁▁▁▁▁▁▁▁▁▁▁▁▁▁▁▁▁▁▁▁▁▁▁▁▁▁▁▁▁▁▁▁▁▁▁▁▁▁▁▁▁▁▁▁▁▁▁▁▁▁▁▁▁▁▁▁▁▁▁▁▁▁▁▁▁▁▁▁▁▁▁▁▁</text><text class="terminal-r7" x="1171.2" y="874" textLength="12.2" clip-path="url(#terminal-line-35)">▎</text><text class="terminal-r1" x="1220" y="874" textLength="12.2" clip-path="url(#terminal-line-35)">
</text><text class="terminal-r1" x="1220" y="898.4" textLength="12.2" clip-path="url(#terminal-line-36)">
</text><text class="terminal-r1" x="1220" y="922.8" textLength="12.2" clip-path="url(#terminal-line-37)">
</text><text class="terminal-r1" x="1220" y="947.2" textLength="12.2" clip-path="url(#terminal-line-38)">
</text><text class="terminal-r1" x="1220" y="971.6" textLength="12.2" clip-path="url(#terminal-line-39)">
</text><text class="terminal-r6" x="24.4" y="996" textLength="1000.4" clip-path="url(#terminal-line-40)">URL&#160;of&#160;infrastructure&#160;website&#160;or&#160;owning&#160;institution&#160;(infrastructure&#160;configs&#160;only).</text><text class="terminal-r1" x="1220" y="996" textLength="12.2" clip-path="url(#terminal-line-40)">
</text><text class="terminal-r1" x="1220" y="1020.4" textLength="12.2" clip-path="url(#terminal-line-41)">
</text><text class="terminal-r4" x="12.2" y="1044.8" textLength="12.2" clip-path="url(#terminal-line-42)">▊</text><text class="terminal-r7" x="24.4" y="1044.8" textLength="1146.8" clip-path="url(#terminal-line-42)">▔▔▔▔▔▔▔▔▔▔▔▔▔▔▔▔▔▔▔▔▔▔▔▔▔▔▔▔▔▔▔▔▔▔▔▔▔▔▔▔▔▔▔▔▔▔▔▔▔▔▔▔▔▔▔▔▔▔▔▔▔▔▔▔▔▔▔▔▔▔▔▔▔▔▔▔▔▔▔▔▔▔▔▔▔▔▔▔▔▔▔▔▔▔</text><text class="terminal-r7" x="1171.2" y="1044.8" textLength="12.2" clip-path="url(#terminal-line-42)">▎</text><text class="terminal-r1" x="1220" y="1044.8" textLength="12.2" clip-path="url(#terminal-line-42)">
</text><text class="terminal-r4" x="12.2" y="1069.2" textLength="12.2" clip-path="url(#terminal-line-43)">▊</text><text class="terminal-r2" x="48.8" y="1069.2" textLength="231.8" clip-path="url(#terminal-line-43)">https://example.com</text><text class="terminal-r7" x="1171.2" y="1069.2" textLength="12.2" clip-path="url(#terminal-line-43)">▎</text><text class="terminal-r1" x="1220" y="1069.2" textLength="12.2" clip-path="url(#terminal-line-43)">
</text><text class="terminal-r4" x="12.2" y="1093.6" textLength="12.2" clip-path="url(#terminal-line-44)">▊</text><text class="terminal-r7" x="24.4" y="1093.6" textLength="1146.8" clip-path="url(#terminal-line-44)">▁▁▁▁▁▁▁▁▁▁▁▁▁▁▁▁▁▁▁▁▁▁▁▁▁▁▁▁▁▁▁▁▁▁▁▁▁▁▁▁▁▁▁▁▁▁▁▁▁▁▁▁▁▁▁▁▁▁▁▁▁▁▁▁▁▁▁▁▁▁▁▁▁▁▁▁▁▁▁▁▁▁▁▁▁▁▁▁▁▁▁▁▁▁</text><text class="terminal-r7" x="1171.2" y="1093.6" textLength="12.2" clip-path="url(#terminal-line-44)">▎</text><text class="terminal-r1" x="1220" y="1093.6" textLength="12.2" clip-path="url(#terminal-line-44)">
</text><text class="terminal-r1" x="1220" y="1118" textLength="12.2" clip-path="url(#terminal-line-45)">
</text><text class="terminal-r1" x="1220" y="1142.4" textLength="12.2" clip-path="url(#terminal-line-46)">
</text><text class="terminal-r11" x="378.2" y="1166.8" textLength="195.2" clip-path="url(#terminal-line-47)">▔▔▔▔▔▔▔▔▔▔▔▔▔▔▔▔</text><text class="terminal-r12" x="610" y="1166.8" textLength="195.2" clip-path="url(#terminal-line-47)">▔▔▔▔▔▔▔▔▔▔▔▔▔▔▔▔</text><text class="terminal-r1" x="1220" y="1166.8" textLength="12.2" clip-path="url(#terminal-line-47)">
</text><text class="terminal-r13" x="439.2" y="1191.2" textLength="73.2" clip-path="url(#terminal-line-48)">&#160;Back&#160;</text><text class="terminal-r14" x="671" y="1191.2" textLength="73.2" clip-path="url(#terminal-line-48)">&#160;Next&#160;</text><text class="terminal-r15" x="1195.6" y="1191.2" textLength="24.4" clip-path="url(#terminal-line-48)">▇▇</text><text class="terminal-r1" x="1220" y="1191.2" textLength="12.2" clip-path="url(#terminal-line-48)">
</text><text class="terminal-r16" x="1049.2" y="1215.6" textLength="12.2" clip-path="url(#terminal-line-49)">▏</text><text class="terminal-r17" x="1061.4" y="1215.6" textLength="24.4" clip-path="url(#terminal-line-49)">^p</text><text class="terminal-r2" x="1085.8" y="1215.6" textLength="97.6" clip-path="url(#terminal-line-49)">&#160;palette</text>
    </g>
    </g>
</svg>
